:version 1.10
:name ASF
:units
  mass 1
  length 1
  angle deg
:documentation
  ASF file generated by Kaydara
:root
  axis xyz
  order  tx ty tz rx ry rz
  position 0 0 0
  orientation 0 0 0
:bonedata
  begin
    id 1
    name RightUpLegDummy
    direction -1 2.30186e-007 8.31532e-007
    length 4.46685
    axis 0 0 0 xyz
  end
  begin
    id 2
    name RightUpLeg
    direction -2.30187e-007 -1 1.24343e-010
    length 16.4045
    axis -3.49089 -0.000906625 0.000286804 xyz
    dof rx ry rz
  end
  begin
    id 3
    name RightLeg
    direction -2.30181e-007 -1 -4.17157e-009
    length 17.5097
    axis 3.68512 0.0193738 -0.131023 xyz
    dof rx ry rz
  end
  begin
    id 4
    name RightFoot
    direction 8.31421e-007 -4.51202e-011 1
    length 6.49508
    axis 4.81691e-005 -0.120479 -0.188788 xyz
    dof rx ry rz
  end
  begin
    id 5
    name RightToes
    direction 0.00124746 -0.014064 0.9999
    length 3.85082
    axis 0.000481921 0.542163 -0.142578 xyz
    dof rx ry rz
  end
  begin
    id 6
    name SpineDummy
    direction 0.0717043 0.9409 -0.331007
    length 10.0032
    axis 0 0 0 xyz
  end
  begin
    id 7
    name Spine
    direction 2.30186e-007 1 4.58806e-011
    length 9.84055
    axis -0.001389 0.000121418 2.40972e-006 xyz
    dof rx ry rz
  end
  begin
    id 8
    name Spine1
    direction 0 0 0
    length 0
    axis -0.001389 0.000121451 1.30017e-006 xyz
    dof rx ry rz
  end
  begin
    id 9
    name HEadDummy
    direction -0.00347485 0.950688 -0.310128
    length 8.00997
    axis -0.001389 0.000121451 1.30017e-006 xyz
  end
  begin
    id 10
    name HEad
    direction -0.0222688 0.980941 0.193023
    length 5.12695
    axis -0.001389 0.000121451 1.30017e-006 xyz
    dof rx ry rz
  end
  begin
    id 11
    name LeftShoulder1Dummy
    direction 0.988871 0.146793 -0.0242004
    length 3.5792
    axis -0.001389 0.000121451 1.30017e-006 xyz
  end
  begin
    id 12
    name LeftShoulder1
    direction 0.993832 0.108932 0.020779
    length 4.16823
    axis -0.001389 0.000121451 1.30017e-006 xyz
    dof rx ry rz
  end
  begin
    id 13
    name LeftArm
    direction 1 3.44807e-006 -8.31404e-007
    length 9.91437
    axis -23.1894 0.134784 0.967509 xyz
    dof rx ry rz
  end
  begin
    id 14
    name LeftForeArm
    direction 1 3.44842e-006 -8.31581e-007
    length 9.08575
    axis -9.91835 -0.06569 -0.177793 xyz
    dof rx ry rz
  end
  begin
    id 15
    name LeftHand
    direction 0.992938 -0.0411636 0.11126
    length 5.32135
    axis -0.00960232 -0.00340091 0.185173 xyz
    dof rx ry rz
  end
  begin
    id 16
    name RightShoulderDummy
    direction -0.988871 0.146793 -0.0241962
    length 3.5792
    axis -0.001389 0.000121451 1.30017e-006 xyz
  end
  begin
    id 17
    name RightShoulder
    direction -0.993832 0.108933 0.0207785
    length 4.16823
    axis 0.215806 0.000203643 -0.0068026 xyz
    dof rx ry rz
  end
  begin
    id 18
    name RightArm
    direction -1 3.90912e-006 8.31284e-007
    length 9.91437
    axis -23.2009 -0.134239 -0.964101 xyz
    dof rx ry rz
  end
  begin
    id 19
    name RightForeArm
    direction -1 3.90882e-006 8.31502e-007
    length 9.08575
    axis -9.92322 0.0658061 0.178867 xyz
    dof rx ry rz
  end
  begin
    id 20
    name RightHand
    direction -0.992843 -0.0414603 0.112003
    length 5.28593
    axis -0.00960638 0.00330671 -0.185228 xyz
    dof rx ry rz
  end
  begin
    id 21
    name LeftUpLegDummy
    direction 1 -2.30186e-007 -8.31532e-007
    length 4.46685
    axis 0 0 0 xyz
  end
  begin
    id 22
    name LeftUpLeg
    direction -2.30187e-007 -1 6.00931e-010
    length 16.4045
    axis -3.48766 0.00143442 -0.000524262 xyz
    dof rx ry rz
  end
  begin
    id 23
    name LeftLeg
    direction -2.30187e-007 -1 1.6669e-009
    length 17.5097
    axis 3.68178 -0.00654042 -0.000285133 xyz
    dof rx ry rz
  end
  begin
    id 24
    name LeftFoot
    direction 8.31532e-007 -4.54478e-011 1
    length 6.49508
    axis 1.87233e-006 4.66016e-005 -8.6538e-006 xyz
    dof rx ry rz
  end
  begin
    id 25
    name LeftToes
    direction 0.00818058 -0.00485161 0.999955
    length 3.85048
    axis 1.06247e-005 4.65869e-005 -8.65513e-006 xyz
    dof rx ry rz
  end
:hierarchy
  begin
    root RightUpLegDummy SpineDummy LeftUpLegDummy
    RightUpLegDummy RightUpLeg
    RightUpLeg RightLeg
    RightLeg RightFoot
    RightFoot RightToes
    SpineDummy Spine
    Spine Spine1
    Spine1 HEadDummy LeftShoulder1Dummy RightShoulderDummy
    HEadDummy HEad
    LeftShoulder1Dummy LeftShoulder1
    LeftShoulder1 LeftArm
    LeftArm LeftForeArm
    LeftForeArm LeftHand
    RightShoulderDummy RightShoulder
    RightShoulder RightArm
    RightArm RightForeArm
    RightForeArm RightHand
    LeftUpLegDummy LeftUpLeg
    LeftUpLeg LeftLeg
    LeftLeg LeftFoot
    LeftFoot LeftToes
  end

:SAMPLES-PER-SECOND 30
:FULLY-SPECIFIED
:DEGREES
49
root  21.6005 24.487 -29.2881 28.5134 20.2921 -1.40517
RightUpLeg  -77.4036 -2.32242 1.75891
RightLeg  86.9189 -0.343346 -3.77598
RightFoot  -28.3427 0.196598 1.15615
RightToes  -28.0708 -0.130865 -0.238337
Spine  21.8681 3.0425 9.79707
Spine1  34.1086 2.79952 11.6621
HEad  -5.89469 -0.800567 -5.40312
LeftShoulder1  0 -2.42657e-020 -4.95415e-022
LeftArm  -12.1004 -44.7025 -97.3635
LeftForeArm  -148.243 -16.537 -2.59797
LeftHand  10.2631 -25.1565 -44.227
RightShoulder  0 2.42657e-020 1.07489e-018
RightArm  -93.9114 52.7348 43.6251
RightForeArm  24.7019 17.0884 3.10362
RightHand  0.352378 24.7583 1.9759
LeftUpLeg  -27.9733 -4.18091 -2.26636
LeftLeg  89.3806 -0.145531 -2.02561
LeftFoot  -1.38526 -0.00694097 -0.574147
LeftToes  -42.4711 1.18758e-006 1.19596e-007
50
root  23.2852 24.7758 -27.1298 28.455 20.926 0.153393
RightUpLeg  -70.1196 -2.64181 -1.90304
RightLeg  86.1047 -0.669996 -5.79211
RightFoot  -32.8538 0.767478 2.98036
RightToes  -30.0308 -0.144133 -0.25218
Spine  21.135 2.48083 9.47621
Spine1  33.7801 2.93651 11.2317
HEad  -6.33 0.315716 -5.68555
LeftShoulder1  0 -2.42657e-020 -4.95415e-022
LeftArm  -17.7615 -40.0297 -92.8181
LeftForeArm  -148.857 -17.6259 -2.80502
LeftHand  10.5435 -25.2896 -45.0933
RightShoulder  0 2.42657e-020 1.07489e-018
RightArm  -91.9384 48.1055 42.5405
RightForeArm  18.8626 24.2056 4.54177
RightHand  1.52435 25.9774 6.97334
LeftUpLeg  -38.2715 -2.77146 -0.545998
LeftLeg  96.3255 -0.162056 3.6535
LeftFoot  -10.9807 -0.123039 -1.28002
LeftToes  -33.3153 1.18758e-006 1.19596e-007
51
root  25.0035 25.2337 -24.9397 28.678 22.3997 2.51637
RightUpLeg  -61.4755 -3.40806 -5.63838
RightLeg  83.3516 -1.39026 -8.10471
RightFoot  -36.0892 1.52648 5.06093
RightToes  -31.3033 -0.152998 -0.260921
Spine  19.864 1.11235 8.02591
Spine1  32.5041 1.82175 9.02871
HEad  -6.85549 2.17187 -5.70104
LeftShoulder1  0 -2.42657e-020 -4.95415e-022
LeftArm  -23.9113 -34.0513 -86.6784
LeftForeArm  -152.536 -19.6167 -3.18895
LeftHand  10.7561 -25.795 -45.0777
RightShoulder  0 2.42657e-020 1.07489e-018
RightArm  -85.0783 43.5827 47.19
RightForeArm  4.88785 31.6786 6.23471
RightHand  2.6369 23.3241 13.0989
LeftUpLeg  -49.61 -2.35058 1.37073
LeftLeg  98.7036 -0.302157 3.5123
LeftFoot  -15.6299 -0.203987 -1.48618
LeftToes  -27.2053 1.18758e-006 1.19596e-007
52
root  26.8482 25.8271 -22.644 28.6718 23.6042 4.84739
RightUpLeg  -51.2709 -4.33368 -9.03393
RightLeg  78.2068 -2.60717 -9.63462
RightFoot  -37.8126 2.13538 6.60697
RightToes  -33.0476 -0.165461 -0.27258
Spine  18.4818 -0.436019 5.86168
Spine1  30.7766 -0.168579 6.61717
HEad  -6.35269 3.4703 -5.61684
LeftShoulder1  0 -2.42657e-020 -4.95415e-022
LeftArm  -29.3612 -27.9758 -81.5983
LeftForeArm  -154.82 -20.9611 -3.45409
LeftHand  11.0089 -26.1563 -45.4404
RightShoulder  0 2.42657e-020 1.07489e-018
RightArm  -76.6676 37.3462 55.3323
RightForeArm  5.75393 42.6002 9.3292
RightHand  1.69237 23.4174 8.52497
LeftUpLeg  -59.788 -1.56737 2.98671
LeftLeg  95.3767 -0.0260805 1.11312
LeftFoot  -17.155 -0.119985 -0.79547
LeftToes  -26.3864 1.18758e-006 1.19596e-007
53
root  28.7403 26.4854 -20.1818 28.2544 23.7606 6.46326
RightUpLeg  -40.2993 -4.25393 -11.7949
RightLeg  70.809 -4.38634 -10.4421
RightFoot  -37.0819 2.38957 7.49431
RightToes  -35.8986 -0.186576 -0.290801
Spine  17.1217 -1.62574 3.30155
Spine1  28.9917 -2.62587 4.99092
HEad  -6.2764 3.10187 -5.52236
LeftShoulder1  0 -2.42657e-020 -4.95415e-022
LeftArm  -32.3311 -22.0167 -78.0503
LeftForeArm  -158.302 -22.0709 -3.67666
LeftHand  11.43 -26.7282 -46.0666
RightShoulder  0 2.42657e-020 1.07489e-018
RightArm  -69.8211 30.8766 63.9366
RightForeArm  14.2015 55.6231 14.9792
RightHand  -0.0458544 24.0681 0.154951
LeftUpLeg  -67.5216 0.671118 4.01752
LeftLeg  86.6387 -0.094123 -0.817504
LeftFoot  -15.8704 -0.0144737 -0.103847
LeftToes  -27.1927 1.18758e-006 1.19596e-007
54
root  30.5992 26.9523 -17.5629 28.2084 23.7823 6.81779
RightUpLeg  -30.4885 -3.55864 -13.395
RightLeg  63.1387 -5.76636 -9.7611
RightFoot  -33.6805 2.01386 7.02425
RightToes  -41.6452 -0.231757 -0.324226
Spine  15.6372 -2.13954 1.87296
Spine1  26.9952 -3.88022 3.76517
HEad  -4.89722 2.75382 -5.69273
LeftShoulder1  0 -2.42657e-020 -4.95415e-022
LeftArm  -34.5492 -16.1872 -76.7693
LeftForeArm  -162.218 -23.4606 -3.96139
LeftHand  11.6556 -26.5639 -47.1456
RightShoulder  0 2.42657e-020 1.07489e-018
RightArm  -63.5879 23.8045 70.3241
RightForeArm  41.8596 72.532 34.372
RightHand  -2.4586 24.2971 -11.018
LeftUpLeg  -73.6143 3.92495 4.70855
LeftLeg  73.9747 -0.299663 -0.855897
LeftFoot  -10.9787 -0.000730191 -0.00760722
LeftToes  -28.0888 1.18758e-006 1.19596e-007
